<svg width="274" height="52" viewBox="0 0 274 52" fill="none" xmlns="http://www.w3.org/2000/svg">
<path d="M204.176 0C204.731 0.0504511 205.286 0.100904 205.815 0.151355C209.095 0.454062 212.298 1.0847 215.224 2.64868C217.722 3.96041 219.715 5.8271 220.85 8.45056C221.657 10.292 221.859 12.2344 221.733 14.2272C221.556 16.8507 220.724 19.2471 219.059 21.3156C217.394 23.3589 215.275 24.721 212.828 25.6292C211.869 25.9823 210.86 26.2346 209.851 26.5373C209.751 26.5625 209.65 26.5877 209.524 26.613C214.19 33.4491 218.832 40.2348 223.524 47.0961C223.398 47.0961 223.322 47.1213 223.246 47.1213C220.547 47.1213 217.823 47.1213 215.124 47.1213C214.846 47.1213 214.77 46.9952 214.644 46.8186C210.457 40.4618 206.295 34.105 202.107 27.7481C201.931 27.4959 201.779 27.3697 201.451 27.3697C197.819 27.3697 194.161 27.3697 190.529 27.3697H190.075V47.0961H182.33V46.6168C182.33 31.2292 182.33 15.8669 182.33 0.479284C182.33 0.327931 182.33 0.151353 182.33 0C189.621 0 196.911 0 204.176 0ZM182.86 5.80188C183.465 5.85233 184.02 5.87755 184.575 5.92801C187.022 6.20549 188.662 7.44154 189.419 9.81274C189.797 11.0488 190.024 12.3353 190.024 13.6218C190.075 16.2957 190.024 18.9696 190.024 21.6435C190.024 21.7697 190.024 21.921 190.024 22.0724H190.478C194.413 22.0724 198.374 22.0724 202.309 22.0724C203.167 22.0724 204.024 22.0471 204.857 21.9462C206.799 21.7444 208.641 21.1895 210.255 20.0291C213.03 18.0615 214.165 15.3876 213.61 12.0074C213.156 9.35868 211.592 7.5929 209.196 6.48297C207.152 5.5244 204.983 5.27214 202.763 5.27214C196.23 5.27214 189.721 5.27214 183.188 5.27214C183.062 5.27214 182.936 5.27214 182.81 5.27214V5.77665L182.86 5.80188Z" fill="black"/>
<path d="M256.039 0C260.025 10.4434 264.011 20.8868 267.996 31.3554C269.939 36.4762 271.906 41.5717 273.849 46.6925C273.899 46.8186 273.95 46.9448 274 47.1213C273.874 47.1213 273.748 47.1213 273.647 47.1213C271.099 47.1213 268.577 47.1213 266.029 47.1213C265.751 47.1213 265.65 47.0457 265.549 46.7934C263.658 41.6222 261.74 36.4509 259.823 31.3049C259.647 30.8256 259.647 30.8256 259.066 30.9013C259.041 31.1788 259.016 31.4563 258.966 31.7337C258.764 32.7428 258.158 33.4491 257.275 33.9284C256.241 34.5086 255.106 34.8113 253.971 34.9374C252.356 35.114 250.767 35.2401 249.153 35.2653C245.041 35.3158 240.929 35.2653 236.818 35.2653C236.515 35.2653 236.389 35.341 236.288 35.6437C234.976 39.3266 233.639 43.0096 232.302 46.7177C232.252 46.8439 232.201 46.97 232.151 47.0961H224.28C224.634 46.1628 224.987 45.2546 225.34 44.3465C230.99 29.6653 236.641 14.984 242.291 0.277483C242.317 0.17658 242.367 0.100902 242.418 0C246.958 0 251.499 0 256.039 0ZM259.495 29.8923C259.445 29.7409 259.394 29.5896 259.369 29.4634C258.259 26.285 257.149 23.1318 256.039 19.9534C253.82 13.6218 251.625 7.29019 249.405 0.933349C249.329 0.706319 249.229 0.60541 248.951 0.580185C248.598 0.580185 248.598 0.807218 248.522 1.00902C245.192 10.4938 241.837 19.9786 238.508 29.4634C238.457 29.5896 238.432 29.7157 238.382 29.8671H259.495V29.8923Z" fill="black"/>
<path d="M75.8785 0C76.9884 2.87571 78.0983 5.77665 79.183 8.65236C84.0263 21.3156 88.8696 33.9788 93.6877 46.6673C93.7382 46.7934 93.7886 46.9448 93.8391 47.1213H93.5111C90.9634 47.1213 88.4156 47.1213 85.8678 47.1213C85.6155 47.1213 85.4894 47.0457 85.4137 46.7934C83.5218 41.6222 81.6047 36.4509 79.6875 31.2797C79.511 30.8004 79.511 30.8004 78.9308 30.9013C78.8803 31.204 78.8803 31.4815 78.8046 31.7842C78.6028 32.7428 78.0479 33.4239 77.2154 33.9032C76.156 34.5086 74.9956 34.8365 73.81 34.9626C72.1955 35.1392 70.5811 35.2653 68.9414 35.2906C64.8297 35.341 60.7431 35.2906 56.6314 35.2906C56.3539 35.2906 56.2278 35.3662 56.1269 35.6437C54.7899 39.3519 53.453 43.06 52.116 46.7682C52.0655 46.8943 52.0151 46.9952 51.9647 47.1213H44.0943C44.1447 46.9952 44.17 46.8943 44.1952 46.7934C50.1736 31.2292 56.1521 15.6903 62.1558 0.126128C62.1558 0.0756767 62.181 0.0504511 62.2062 0C66.7468 0 71.2874 0 75.828 0H75.8785ZM58.2206 29.8923H79.3344C79.3092 29.7914 79.2839 29.7157 79.2587 29.64C75.9289 20.0795 72.5739 10.4938 69.2442 0.933349C69.1685 0.731544 69.0928 0.655864 68.8658 0.630639C68.5378 0.605413 68.4622 0.781994 68.3865 1.03425C65.2837 9.83797 62.181 18.6669 59.1035 27.4706C58.826 28.2779 58.5485 29.0598 58.2458 29.8923H58.2206Z" fill="black"/>
<path d="M42.7321 0C42.7321 4.01086 42.7321 8.04695 42.7321 12.0578C42.7321 12.3101 42.5807 12.3857 42.4294 12.5119C35.5428 17.2795 28.6562 22.0471 21.7949 26.8148C14.9335 31.5572 8.0974 36.2996 1.23605 41.042C0.95857 41.2438 0.807213 41.4204 0.933341 41.824H42.7321V47.1213H0C0 43.0348 0 38.923 0 34.8365C0 34.8365 0.0504465 34.8365 0.0504465 34.8113C13.8993 25.2256 27.7481 15.6146 41.5969 6.02891C41.8744 5.8271 41.8997 5.6253 41.824 5.32259H41.4204C27.7481 5.32259 14.0759 5.32259 0.403603 5.32259C0.277475 5.32259 0.126128 5.3226 0 5.34782V0.0252271H42.7321V0Z" fill="black"/>
<path d="M94.0661 0C94.8481 2.39643 95.6301 4.79285 96.4121 7.16406C100.625 20.1552 104.863 33.1464 109.075 46.1375C109.126 46.2637 109.227 46.3646 109.302 46.4655C109.378 46.3646 109.504 46.2637 109.555 46.1628C114.549 30.8761 119.544 15.5894 124.564 0.30271C124.589 0.201808 124.614 0.100902 124.639 0C127.263 0 129.886 0 132.535 0C132.182 1.03425 131.829 2.09372 131.476 3.12797C126.405 17.6579 121.335 32.1878 116.265 46.7177C116.214 46.8439 116.164 46.97 116.113 47.1213H115.76C111.32 47.1213 106.881 47.1213 102.441 47.1213C102.214 47.1213 102.088 47.0961 101.987 46.8439C96.6139 31.3301 91.2156 15.7912 85.8174 0.277483C85.7921 0.201806 85.7669 0.100904 85.7417 0.0252271C88.5165 0.0252271 91.2661 0.0252271 94.0409 0.0252271L94.0661 0Z" fill="black"/>
<path d="M176.579 0V5.29737H152.943V5.8271C153.498 5.87756 154.078 5.85233 154.633 5.95323C155.364 6.10459 156.121 6.25594 156.802 6.55864C158.341 7.23973 159.098 8.55146 159.552 10.0902C159.905 11.2758 160.081 12.4614 160.081 13.6975C160.081 24.8304 160.081 35.9632 160.081 47.0961H152.337V5.29737H135.84V0H176.579Z" fill="black"/>
</svg>
